<?xml version="1.0" standalone="no"?>
<!DOCTYPE svg PUBLIC "-//W3C//DTD SVG 20010904//EN"
 "http://www.w3.org/TR/2001/REC-SVG-20010904/DTD/svg10.dtd">
<svg version="1.0" xmlns="http://www.w3.org/2000/svg"
 width="512.000000pt" height="512.000000pt" viewBox="0 0 512.000000 512.000000"
 preserveAspectRatio="xMidYMid meet">

<g transform="translate(0.000000,512.000000) scale(0.100000,-0.100000)"
fill="#000000" stroke="none">
<path d="M2342 3243 c2 -5 15 -33 30 -63 14 -30 32 -69 40 -85 26 -61 422
-805 428 -805 3 0 13 13 23 29 l17 29 -176 334 c-97 183 -203 386 -235 451
-59 117 -59 117 -95 117 -20 0 -34 -3 -32 -7z"/>
<path d="M2518 3158 c106 -199 391 -745 413 -790 13 -27 25 -48 28 -48 4 0 55
94 115 208 60 114 169 321 243 460 73 139 133 255 133 258 0 2 -17 4 -37 4
l-38 0 -174 -333 c-231 -439 -235 -447 -241 -447 -3 1 -97 176 -209 390 l-203
390 -39 0 -40 0 49 -92z"/>
<path d="M2894 2309 c-5 -8 -115 -215 -245 -461 l-237 -448 37 0 c20 0 41 4
47 8 12 8 44 66 44 80 0 5 20 45 43 88 24 44 97 180 162 304 64 124 137 262
161 307 l44 82 -23 27 c-19 22 -26 25 -33 13z"/>
</g>
</svg>
